# xmcd CD database file
#
# Track frame offsets:
#	150
#	12632
#	24890
#	37127
#	53592
#	68770
#	83695
#	97040
#	112695
#	123210
#	135920
#	148725
#	162910
#	176587
#
# Disc length: 2515 seconds
#
# Revision: 0
# Processed by: cddbd v1.5.2PL0 Copyright (c) Steve Scherf et al.
# Submitted via: CDex 1.70beta2
#
DISCID=ad09d10e
DTITLE=Kay Hansen - Songs Of The West
DYEAR=1997
DGENRE=Country
TTITLE0=When The Flowers Of Montana Are Blooming
TTITLE1=Doney Gal
TTITLE2=I'm Thinking Tonight Of My Blue Eyes
TTITLE3=When It's Night-time In Nevada
TTITLE4=My Heart's Tonight In Texas
TTITLE5=Roll Along, Prairie Moon
TTITLE6=Whip-Poor-Will's Song
TTITLE7=Old Black Mountain Trail
TTITLE8=Wyoming Home
TTITLE9=Gold Watch and Chain
TTITLE10=Little Sweetheart Of The Ozarks
TTITLE11=Red River Valley
TTITLE12=Little Pardner
TTITLE13=Gathering Flowers For The Master's Bouquet
EXTD=YEAR: 1997
EXTT0=
EXTT1=
EXTT2=
EXTT3=
EXTT4=
EXTT5=
EXTT6=
EXTT7=
EXTT8=
EXTT9=
EXTT10=
EXTT11=
EXTT12=
EXTT13=
PLAYORDER=
